<?xml version="1.0" encoding="UTF-8"?>
<svg xmlns="http://www.w3.org/2000/svg" xmlns:xlink="http://www.w3.org/1999/xlink" fill-opacity="1" color-rendering="auto" color-interpolation="auto" stroke="black" text-rendering="auto" stroke-linecap="square" width="165" stroke-miterlimit="10" stroke-opacity="1" shape-rendering="auto" fill="black" stroke-dasharray="none" font-weight="normal" stroke-width="1" height="305" font-family="'Times'" font-style="normal" stroke-linejoin="miter" font-size="12" stroke-dashoffset="0" image-rendering="auto">
  <!--Generated by ySVG-->
  <defs id="genericDefs"/>
  <g>
    <defs id="defs1">
      <clipPath clipPathUnits="userSpaceOnUse" id="clipPath1">
        <path d="M0 0 L165 0 L165 305 L0 305 L0 0 Z"/>
      </clipPath>
      <clipPath clipPathUnits="userSpaceOnUse" id="clipPath2">
        <path d="M0 -15 L165 -15 L165 290 L0 290 L0 -15 Z"/>
      </clipPath>
    </defs>
    <g fill="white" transform="translate(0,15)" stroke="white">
      <rect x="0" width="165" height="305" y="-15" clip-path="url(#clipPath2)" stroke="none"/>
    </g>
    <g fill="rgb(102,183,183)" transform="matrix(1,0,0,1,0,15)" stroke="rgb(102,183,183)">
      <rect x="72" width="24" height="30" y="120" clip-path="url(#clipPath2)" stroke="none"/>
      <text fill="black" x="79" xml:space="preserve" y="139.5" clip-path="url(#clipPath2)" stroke="none">&gt;</text>
    </g>
    <g stroke-linecap="butt" transform="matrix(1,0,0,1,0,15)" stroke-miterlimit="1.45">
      <rect fill="none" x="72" width="24" height="30" y="120" clip-path="url(#clipPath2)"/>
    </g>
    <g fill="rgb(51,173,173)" transform="matrix(1,0,0,1,0,15)" stroke="rgb(51,173,173)">
      <ellipse rx="54.5" ry="15" clip-path="url(#clipPath2)" cx="84" cy="195" stroke="none"/>
      <text fill="black" x="36.5" xml:space="preserve" y="199.5" clip-path="url(#clipPath2)" stroke="none">miller &gt; cooper</text>
    </g>
    <g stroke-linecap="butt" transform="matrix(1,0,0,1,0,15)" stroke-miterlimit="1.45">
      <ellipse rx="54.5" fill="none" ry="15" clip-path="url(#clipPath2)" cx="84" cy="195"/>
    </g>
    <g fill="rgb(0,163,163)" transform="matrix(1,0,0,1,0,15)" stroke="rgb(0,163,163)">
      <rect x="50.5" width="67" height="30" y="245" clip-path="url(#clipPath2)" stroke="none"/>
      <text fill="black" x="57.5" xml:space="preserve" y="264.5" clip-path="url(#clipPath2)" stroke="none">Require!</text>
    </g>
    <g stroke-linecap="butt" transform="matrix(1,0,0,1,0,15)" stroke-miterlimit="1.45">
      <rect fill="none" x="50.5" width="67" height="30" y="245" clip-path="url(#clipPath2)"/>
    </g>
    <g fill="white" transform="matrix(1,0,0,1,0,15)" stroke="white">
      <rect x="41.5" width="85" height="30" y="0" clip-path="url(#clipPath2)" stroke="none"/>
      <text fill="black" x="48.5" xml:space="preserve" y="19.5" clip-path="url(#clipPath2)" stroke="none">BigMachine</text>
    </g>
    <g stroke-linecap="butt" transform="matrix(1,0,0,1,0,15)" stroke-miterlimit="1.45">
      <rect fill="none" x="41.5" width="85" height="30" y="0" clip-path="url(#clipPath2)"/>
    </g>
    <g fill="rgb(153,193,193)" transform="matrix(1,0,0,1,0,15)" stroke="rgb(153,193,193)">
      <ellipse rx="29" ry="15" clip-path="url(#clipPath2)" cx="44" cy="75" stroke="none"/>
      <text fill="black" x="22" xml:space="preserve" y="79.5" clip-path="url(#clipPath2)" stroke="none">cooper</text>
    </g>
    <g stroke-linecap="butt" transform="matrix(1,0,0,1,0,15)" stroke-miterlimit="1.45">
      <ellipse rx="29" fill="none" ry="15" clip-path="url(#clipPath2)" cx="44" cy="75"/>
    </g>
    <g fill="rgb(153,193,193)" transform="matrix(1,0,0,1,0,15)" stroke="rgb(153,193,193)">
      <ellipse rx="23.5" ry="15" clip-path="url(#clipPath2)" cx="126.5" cy="75" stroke="none"/>
      <text fill="black" x="110" xml:space="preserve" y="79.5" clip-path="url(#clipPath2)" stroke="none">miller</text>
    </g>
    <g stroke-linecap="butt" transform="matrix(1,0,0,1,0,15)" stroke-miterlimit="1.45">
      <ellipse rx="23.5" fill="none" ry="15" clip-path="url(#clipPath2)" cx="126.5" cy="75"/>
      <path fill="none" d="M84 150 L84 180" clip-path="url(#clipPath2)"/>
      <path fill="none" d="M84 244.9658 L84 210" clip-path="url(#clipPath2)"/>
      <path fill="none" d="M44 30 L44 60" clip-path="url(#clipPath2)"/>
      <path fill="none" d="M73 75 L84 75 L84 119.9561" clip-path="url(#clipPath2)"/>
      <path fill="none" d="M124.5 30 L124.5 60" clip-path="url(#clipPath2)"/>
      <path fill="none" d="M103 75 L88 75 L88 119.9561" clip-path="url(#clipPath2)"/>
    </g>
  </g>
</svg>
